<svg width="37" height="31" viewBox="0 0 37 31" fill="none" xmlns="http://www.w3.org/2000/svg">
<path d="M35.6229 15.5592C35.8692 14.5802 36 13.5554 36 12.5C36 5.59644 30.4036 0 23.5 0C16.5964 0 11 5.59644 11 12.5C11 19.4036 16.5964 25 23.5 25C26.8154 25 29.8293 23.7093 32.0667 21.6029L36.5056 20.8644L35.6229 15.5592Z" fill="#EFEFEF"/>
<path d="M10 30C15.5228 30 20 25.5229 20 20C20 14.4771 15.5228 10 10 10C4.47717 10 0 14.4771 0 20C0 23.4529 1.75006 26.497 4.4115 28.2939L4.82056 30.7528L9.43848 29.9845C9.62433 29.9948 9.81158 30 10 30Z" fill="#EFEFEF"/>
</svg>
