<svg width="31" height="34" viewBox="0 0 31 34" fill="none" xmlns="http://www.w3.org/2000/svg">
<path fill-rule="evenodd" clip-rule="evenodd" d="M25.7241 14.2736C24.7474 14.7393 23.6541 15 22.5 15C18.3579 15 15 11.6421 15 7.5C15 3.35786 18.3579 0 22.5 0C26.1945 0 29.2651 2.67132 29.8856 6.18782C31.8943 11.3822 30.2246 18.8776 25.163 25.1281C18.5593 33.283 8.68274 36.231 3.10303 31.7127C2.89508 31.5443 2.69604 31.368 2.50586 31.184C2.5529 31.1961 2.60014 31.2078 2.64761 31.219C1.02781 29.8433 0 27.7917 0 25.5C0 21.3579 3.35786 18 7.5 18C11.6421 18 15 21.3579 15 25.5C15 26.1005 14.9294 26.6845 14.7961 27.2442C17.5549 25.1829 20.2837 22.4231 22.6919 19.1086C23.8491 17.5158 24.8615 15.8923 25.7241 14.2736Z" fill="#EFEFEF"/>
</svg>
