<svg width="30" height="30" viewBox="0 0 30 30" fill="none" xmlns="http://www.w3.org/2000/svg">
<path fill-rule="evenodd" clip-rule="evenodd" d="M15 30C23.2843 30 30 23.2843 30 15C30 6.71573 23.2843 0 15 0C6.71573 0 0 6.71573 0 15C0 23.2843 6.71573 30 15 30ZM15 28C22.1797 28 28 22.1797 28 15C28 7.82031 22.1797 2 15 2C7.8203 2 2 7.82031 2 15C2 22.1797 7.8203 28 15 28Z" fill="#EFEFEF"/>
<path d="M14 13C14 12.4477 14.4477 12 15 12C15.5523 12 16 12.4477 16 13V21C16 21.5523 15.5523 22 15 22C14.4477 22 14 21.5523 14 21V13Z" fill="#EFEFEF"/>
<path d="M14 10C14 9.44772 14.4477 9 15 9C15.5523 9 16 9.44772 16 10C16 10.5523 15.5523 11 15 11C14.4477 11 14 10.5523 14 10Z" fill="#EFEFEF"/>
</svg>
