<svg width="20" height="24" viewBox="0 0 20 24" fill="none" xmlns="http://www.w3.org/2000/svg">
<path fill-rule="evenodd" clip-rule="evenodd" d="M15.9724 18.0285C15.9637 18.0366 15.9553 18.0447 15.947 18.0531L10.6716 23.3284C10.2811 23.719 9.64789 23.719 9.25739 23.3284L3.67456 17.7456C1.4317 15.9118 0 13.1231 0 10C0 4.47714 4.47717 0 10 0C15.5228 0 20 4.47714 20 10C20 13.2475 18.452 16.1334 16.0536 17.9602C16.0255 17.9816 15.9982 18.0044 15.9724 18.0285ZM10 14C12.7614 14 15 11.7614 15 9C15 6.23859 12.7614 4 10 4C7.23859 4 5 6.23859 5 9C5 11.7614 7.23859 14 10 14Z" fill="#EFEFEF"/>
</svg>
